<svg width="74" height="64" viewBox="0 0 74 64" fill="none" xmlns="http://www.w3.org/2000/svg">
<g filter="url(#filter0_d_14_957)">
<path d="M69.5 38C69.5 47.9411 61.4411 56 51.5 56L24.5 56C21.7386 56 19.5 53.7614 19.5 51L19.5 17C19.5 11.4772 23.9772 7 29.5 7L64.5 7C67.2614 7 69.5 9.23858 69.5 12L69.5 38Z" fill="#E8F5E9"/>
<path d="M31.4164 19.0109C31.1044 19.0109 30.8507 18.7576 30.8507 18.4452V17.4839C30.8507 17.1719 31.104 16.9182 31.4164 16.9182C31.7284 16.9182 31.9821 17.1715 31.9821 17.4839V18.4452C31.9821 18.7576 31.7284 19.0109 31.4164 19.0109Z" fill="#103E13"/>
<path d="M29.0381 19.0109C28.7261 19.0109 28.4724 18.7576 28.4724 18.4452V17.4839C28.4724 17.1719 28.7257 16.9182 29.0381 16.9182C29.3501 16.9182 29.6038 17.1715 29.6038 17.4839V18.4452C29.6034 18.7576 29.3505 19.0109 29.0381 19.0109Z" fill="#103E13"/>
<path d="M26.66 19.0109C26.348 19.0109 26.0944 18.7576 26.0944 18.4452V17.4839C26.0944 17.1719 26.3476 16.9182 26.66 16.9182C26.9721 16.9182 27.2257 17.1715 27.2257 17.4839V18.4452C27.2257 18.7576 26.9725 19.0109 26.66 19.0109Z" fill="#103E13"/>
<path d="M31.4164 22.942C31.1044 22.942 30.8507 22.6888 30.8507 22.3763V21.4154C30.8507 21.1034 31.104 20.8497 31.4164 20.8497C31.7284 20.8497 31.9821 21.103 31.9821 21.4154V22.3763C31.9821 22.6888 31.7284 22.942 31.4164 22.942Z" fill="#103E13"/>
<path d="M29.0381 22.942C28.7261 22.942 28.4724 22.6888 28.4724 22.3763V21.4154C28.4724 21.1034 28.7257 20.8497 29.0381 20.8497C29.3501 20.8497 29.6038 21.103 29.6038 21.4154V22.3763C29.6034 22.6888 29.3505 22.942 29.0381 22.942Z" fill="#103E13"/>
<path d="M26.66 22.942C26.348 22.942 26.0944 22.6888 26.0944 22.3763V21.4154C26.0944 21.1034 26.3476 20.8497 26.66 20.8497C26.9721 20.8497 27.2257 21.103 27.2257 21.4154V22.3763C27.2257 22.6888 26.9725 22.942 26.66 22.942Z" fill="#103E13"/>
<path d="M31.4164 26.8733C31.1044 26.8733 30.8507 26.6201 30.8507 26.3076V25.3463C30.8507 25.0343 31.104 24.7806 31.4164 24.7806C31.7284 24.7806 31.9821 25.0339 31.9821 25.3463V26.3076C31.9821 26.6201 31.7284 26.8733 31.4164 26.8733Z" fill="#103E13"/>
<path d="M29.0381 26.8733C28.7261 26.8733 28.4724 26.6201 28.4724 26.3076V25.3463C28.4724 25.0343 28.7257 24.7806 29.0381 24.7806C29.3501 24.7806 29.6038 25.0339 29.6038 25.3463V26.3076C29.6034 26.6201 29.3505 26.8733 29.0381 26.8733Z" fill="#103E13"/>
<path d="M26.66 26.8733C26.348 26.8733 26.0944 26.6201 26.0944 26.3076V25.3463C26.0944 25.0343 26.3476 24.7806 26.66 24.7806C26.9721 24.7806 27.2257 25.0339 27.2257 25.3463V26.3076C27.2257 26.6201 26.9725 26.8733 26.66 26.8733Z" fill="#103E13"/>
<path d="M31.4164 30.8037C31.1044 30.8037 30.8507 30.5505 30.8507 30.2381V29.2767C30.8507 28.9647 31.104 28.7111 31.4164 28.7111C31.7284 28.7111 31.9821 28.9643 31.9821 29.2767V30.2381C31.9821 30.5505 31.7284 30.8037 31.4164 30.8037Z" fill="#103E13"/>
<path d="M29.0381 30.8037C28.7261 30.8037 28.4724 30.5505 28.4724 30.2381V29.2767C28.4724 28.9647 28.7257 28.7111 29.0381 28.7111C29.3501 28.7111 29.6038 28.9643 29.6038 29.2767V30.2381C29.6034 30.5505 29.3505 30.8037 29.0381 30.8037Z" fill="#103E13"/>
<path d="M26.66 30.8037C26.348 30.8037 26.0944 30.5505 26.0944 30.2381V29.2767C26.0944 28.9647 26.3476 28.7111 26.66 28.7111C26.9721 28.7111 27.2257 28.9643 27.2257 29.2767V30.2381C27.2257 30.5505 26.9725 30.8037 26.66 30.8037Z" fill="#103E13"/>
<path d="M31.4164 34.735C31.1044 34.735 30.8507 34.4817 30.8507 34.1693V33.2084C30.8507 32.8964 31.104 32.6427 31.4164 32.6427C31.7284 32.6427 31.9821 32.896 31.9821 33.2084V34.1693C31.9821 34.4813 31.7284 34.735 31.4164 34.735Z" fill="#103E13"/>
<path d="M29.0381 34.735C28.7261 34.735 28.4724 34.4817 28.4724 34.1693V33.2084C28.4724 32.8964 28.7257 32.6427 29.0381 32.6427C29.3501 32.6427 29.6038 32.896 29.6038 33.2084V34.1693C29.6034 34.4813 29.3505 34.735 29.0381 34.735Z" fill="#103E13"/>
<path d="M26.66 34.735C26.348 34.735 26.0944 34.4817 26.0944 34.1693L26.0948 33.2084C26.0948 32.8964 26.348 32.6427 26.6604 32.6427C26.9725 32.6427 27.2261 32.896 27.2261 33.2084V34.1693C27.2257 34.4813 26.9725 34.735 26.66 34.735Z" fill="#103E13"/>
<path d="M10.5005 38.6471C10.5005 38.9592 10.7537 39.2128 11.0661 39.2128H45.5139C45.8259 39.2128 46.0796 38.9596 46.0796 38.6471C46.0796 38.3351 45.8263 38.0815 45.5139 38.0815H44.4682V21.8402C44.4682 21.5281 44.215 21.2745 43.9025 21.2745L34.6668 21.2749V9.56576C34.6668 9.36774 34.5635 9.18471 34.3946 9.08214C34.2262 8.97919 34.0156 8.97287 33.8404 9.06399L23.3401 14.531C23.1527 14.6284 23.0359 14.8217 23.0359 15.0327V25.2604H12.8739C12.5619 25.2604 12.3082 25.5137 12.3082 25.8261V38.0816H11.0649C10.7529 38.0812 10.5 38.3344 10.5 38.6468L10.5005 38.6471ZM34.667 29.8422H43.3374V38.0819L34.667 38.0815V29.8422ZM34.667 25.9113H43.3374V28.7113L34.667 28.7109V25.9113ZM34.667 22.4056H43.3374V24.7808H34.667V22.4056ZM24.1667 15.3762L33.5353 10.4982V38.081H24.1667V15.3762ZM16.2359 33.5635C16.2359 32.3895 17.166 31.4341 18.3096 31.4341C19.4531 31.4341 20.3837 32.3891 20.3837 33.5635V38.0817H16.2359V33.5635ZM13.4395 26.3916H23.0358V38.0815H21.515V33.5633C21.515 31.7657 20.0776 30.303 18.3096 30.303C16.5424 30.303 15.105 31.7653 15.105 33.5633V38.0815H13.4395V26.3916Z" fill="#103E13"/>
</g>
<defs>
<filter id="filter0_d_14_957" x="0.5" y="0" width="73" height="64" filterUnits="userSpaceOnUse" color-interpolation-filters="sRGB">
<feFlood flood-opacity="0" result="BackgroundImageFix"/>
<feColorMatrix in="SourceAlpha" type="matrix" values="0 0 0 0 0 0 0 0 0 0 0 0 0 0 0 0 0 0 127 0" result="hardAlpha"/>
<feOffset dy="4"/>
<feGaussianBlur stdDeviation="2"/>
<feComposite in2="hardAlpha" operator="out"/>
<feColorMatrix type="matrix" values="0 0 0 0 0 0 0 0 0 0 0 0 0 0 0 0 0 0 0.25 0"/>
<feBlend mode="normal" in2="BackgroundImageFix" result="effect1_dropShadow_14_957"/>
<feBlend mode="normal" in="SourceGraphic" in2="effect1_dropShadow_14_957" result="shape"/>
</filter>
</defs>
</svg>
